G04 #@! TF.GenerationSoftware,KiCad,Pcbnew,(5.1.2)-2*
G04 #@! TF.CreationDate,2019-07-20T17:19:25+01:00*
G04 #@! TF.ProjectId,Kilobot v2-0,4b696c6f-626f-4742-9076-322d302e6b69,rev?*
G04 #@! TF.SameCoordinates,Original*
G04 #@! TF.FileFunction,Legend,Top*
G04 #@! TF.FilePolarity,Positive*
%FSLAX46Y46*%
G04 Gerber Fmt 4.6, Leading zero omitted, Abs format (unit mm)*
G04 Created by KiCad (PCBNEW (5.1.2)-2) date 2019-07-20 17:19:25*
%MOMM*%
%LPD*%
G04 APERTURE LIST*
%ADD10C,0.160000*%
%ADD11C,0.200000*%
G04 APERTURE END LIST*
D10*
X98892857Y-85887142D02*
X98892857Y-86530000D01*
X98850000Y-86658571D01*
X98764285Y-86744285D01*
X98635714Y-86787142D01*
X98550000Y-86787142D01*
X99750000Y-86787142D02*
X99321428Y-86787142D01*
X99321428Y-85887142D01*
X100564285Y-86701428D02*
X100521428Y-86744285D01*
X100392857Y-86787142D01*
X100307142Y-86787142D01*
X100178571Y-86744285D01*
X100092857Y-86658571D01*
X100050000Y-86572857D01*
X100007142Y-86401428D01*
X100007142Y-86272857D01*
X100050000Y-86101428D01*
X100092857Y-86015714D01*
X100178571Y-85930000D01*
X100307142Y-85887142D01*
X100392857Y-85887142D01*
X100521428Y-85930000D01*
X100564285Y-85972857D01*
X101207142Y-85887142D02*
X101207142Y-86530000D01*
X101164285Y-86658571D01*
X101078571Y-86744285D01*
X100950000Y-86787142D01*
X100864285Y-86787142D01*
X102064285Y-86787142D02*
X101635714Y-86787142D01*
X101635714Y-85887142D01*
X102878571Y-86701428D02*
X102835714Y-86744285D01*
X102707142Y-86787142D01*
X102621428Y-86787142D01*
X102492857Y-86744285D01*
X102407142Y-86658571D01*
X102364285Y-86572857D01*
X102321428Y-86401428D01*
X102321428Y-86272857D01*
X102364285Y-86101428D01*
X102407142Y-86015714D01*
X102492857Y-85930000D01*
X102621428Y-85887142D01*
X102707142Y-85887142D01*
X102835714Y-85930000D01*
X102878571Y-85972857D01*
X103521428Y-85887142D02*
X103521428Y-86530000D01*
X103478571Y-86658571D01*
X103392857Y-86744285D01*
X103264285Y-86787142D01*
X103178571Y-86787142D01*
X104378571Y-86787142D02*
X103950000Y-86787142D01*
X103950000Y-85887142D01*
X105192857Y-86701428D02*
X105150000Y-86744285D01*
X105021428Y-86787142D01*
X104935714Y-86787142D01*
X104807142Y-86744285D01*
X104721428Y-86658571D01*
X104678571Y-86572857D01*
X104635714Y-86401428D01*
X104635714Y-86272857D01*
X104678571Y-86101428D01*
X104721428Y-86015714D01*
X104807142Y-85930000D01*
X104935714Y-85887142D01*
X105021428Y-85887142D01*
X105150000Y-85930000D01*
X105192857Y-85972857D01*
X105835714Y-85887142D02*
X105835714Y-86530000D01*
X105792857Y-86658571D01*
X105707142Y-86744285D01*
X105578571Y-86787142D01*
X105492857Y-86787142D01*
X106692857Y-86787142D02*
X106264285Y-86787142D01*
X106264285Y-85887142D01*
X107507142Y-86701428D02*
X107464285Y-86744285D01*
X107335714Y-86787142D01*
X107250000Y-86787142D01*
X107121428Y-86744285D01*
X107035714Y-86658571D01*
X106992857Y-86572857D01*
X106950000Y-86401428D01*
X106950000Y-86272857D01*
X106992857Y-86101428D01*
X107035714Y-86015714D01*
X107121428Y-85930000D01*
X107250000Y-85887142D01*
X107335714Y-85887142D01*
X107464285Y-85930000D01*
X107507142Y-85972857D01*
D11*
X103548571Y-108192142D02*
X103548571Y-108920714D01*
X103591428Y-109006428D01*
X103634285Y-109049285D01*
X103720000Y-109092142D01*
X103891428Y-109092142D01*
X103977142Y-109049285D01*
X104020000Y-109006428D01*
X104062857Y-108920714D01*
X104062857Y-108192142D01*
X104491428Y-108492142D02*
X104491428Y-109092142D01*
X104491428Y-108577857D02*
X104534285Y-108535000D01*
X104620000Y-108492142D01*
X104748571Y-108492142D01*
X104834285Y-108535000D01*
X104877142Y-108620714D01*
X104877142Y-109092142D01*
X105305714Y-109092142D02*
X105305714Y-108492142D01*
X105305714Y-108192142D02*
X105262857Y-108235000D01*
X105305714Y-108277857D01*
X105348571Y-108235000D01*
X105305714Y-108192142D01*
X105305714Y-108277857D01*
X105648571Y-108492142D02*
X105862857Y-109092142D01*
X106077142Y-108492142D01*
X106762857Y-109049285D02*
X106677142Y-109092142D01*
X106505714Y-109092142D01*
X106420000Y-109049285D01*
X106377142Y-108963571D01*
X106377142Y-108620714D01*
X106420000Y-108535000D01*
X106505714Y-108492142D01*
X106677142Y-108492142D01*
X106762857Y-108535000D01*
X106805714Y-108620714D01*
X106805714Y-108706428D01*
X106377142Y-108792142D01*
X107191428Y-109092142D02*
X107191428Y-108492142D01*
X107191428Y-108663571D02*
X107234285Y-108577857D01*
X107277142Y-108535000D01*
X107362857Y-108492142D01*
X107448571Y-108492142D01*
X107705714Y-109049285D02*
X107791428Y-109092142D01*
X107962857Y-109092142D01*
X108048571Y-109049285D01*
X108091428Y-108963571D01*
X108091428Y-108920714D01*
X108048571Y-108835000D01*
X107962857Y-108792142D01*
X107834285Y-108792142D01*
X107748571Y-108749285D01*
X107705714Y-108663571D01*
X107705714Y-108620714D01*
X107748571Y-108535000D01*
X107834285Y-108492142D01*
X107962857Y-108492142D01*
X108048571Y-108535000D01*
X108477142Y-109092142D02*
X108477142Y-108492142D01*
X108477142Y-108192142D02*
X108434285Y-108235000D01*
X108477142Y-108277857D01*
X108520000Y-108235000D01*
X108477142Y-108192142D01*
X108477142Y-108277857D01*
X108777142Y-108492142D02*
X109120000Y-108492142D01*
X108905714Y-108192142D02*
X108905714Y-108963571D01*
X108948571Y-109049285D01*
X109034285Y-109092142D01*
X109120000Y-109092142D01*
X109334285Y-108492142D02*
X109548571Y-109092142D01*
X109762857Y-108492142D02*
X109548571Y-109092142D01*
X109462857Y-109306428D01*
X109420000Y-109349285D01*
X109334285Y-109392142D01*
X110920000Y-109092142D02*
X110834285Y-109049285D01*
X110791428Y-109006428D01*
X110748571Y-108920714D01*
X110748571Y-108663571D01*
X110791428Y-108577857D01*
X110834285Y-108535000D01*
X110920000Y-108492142D01*
X111048571Y-108492142D01*
X111134285Y-108535000D01*
X111177142Y-108577857D01*
X111220000Y-108663571D01*
X111220000Y-108920714D01*
X111177142Y-109006428D01*
X111134285Y-109049285D01*
X111048571Y-109092142D01*
X110920000Y-109092142D01*
X111477142Y-108492142D02*
X111820000Y-108492142D01*
X111605714Y-109092142D02*
X111605714Y-108320714D01*
X111648571Y-108235000D01*
X111734285Y-108192142D01*
X111820000Y-108192142D01*
X102670000Y-110642142D02*
X102670000Y-109742142D01*
X103012857Y-109742142D01*
X103098571Y-109785000D01*
X103141428Y-109827857D01*
X103184285Y-109913571D01*
X103184285Y-110042142D01*
X103141428Y-110127857D01*
X103098571Y-110170714D01*
X103012857Y-110213571D01*
X102670000Y-110213571D01*
X103698571Y-110642142D02*
X103612857Y-110599285D01*
X103570000Y-110513571D01*
X103570000Y-109742142D01*
X103955714Y-110042142D02*
X104170000Y-110642142D01*
X104384285Y-110042142D02*
X104170000Y-110642142D01*
X104084285Y-110856428D01*
X104041428Y-110899285D01*
X103955714Y-110942142D01*
X104727142Y-110642142D02*
X104727142Y-110042142D01*
X104727142Y-110127857D02*
X104770000Y-110085000D01*
X104855714Y-110042142D01*
X104984285Y-110042142D01*
X105070000Y-110085000D01*
X105112857Y-110170714D01*
X105112857Y-110642142D01*
X105112857Y-110170714D02*
X105155714Y-110085000D01*
X105241428Y-110042142D01*
X105370000Y-110042142D01*
X105455714Y-110085000D01*
X105498571Y-110170714D01*
X105498571Y-110642142D01*
X106055714Y-110642142D02*
X105970000Y-110599285D01*
X105927142Y-110556428D01*
X105884285Y-110470714D01*
X105884285Y-110213571D01*
X105927142Y-110127857D01*
X105970000Y-110085000D01*
X106055714Y-110042142D01*
X106184285Y-110042142D01*
X106270000Y-110085000D01*
X106312857Y-110127857D01*
X106355714Y-110213571D01*
X106355714Y-110470714D01*
X106312857Y-110556428D01*
X106270000Y-110599285D01*
X106184285Y-110642142D01*
X106055714Y-110642142D01*
X107127142Y-110042142D02*
X107127142Y-110642142D01*
X106741428Y-110042142D02*
X106741428Y-110513571D01*
X106784285Y-110599285D01*
X106870000Y-110642142D01*
X106998571Y-110642142D01*
X107084285Y-110599285D01*
X107127142Y-110556428D01*
X107427142Y-110042142D02*
X107770000Y-110042142D01*
X107555714Y-109742142D02*
X107555714Y-110513571D01*
X107598571Y-110599285D01*
X107684285Y-110642142D01*
X107770000Y-110642142D01*
X108070000Y-110642142D02*
X108070000Y-109742142D01*
X108455714Y-110642142D02*
X108455714Y-110170714D01*
X108412857Y-110085000D01*
X108327142Y-110042142D01*
X108198571Y-110042142D01*
X108112857Y-110085000D01*
X108070000Y-110127857D01*
X109527142Y-109827857D02*
X109570000Y-109785000D01*
X109655714Y-109742142D01*
X109870000Y-109742142D01*
X109955714Y-109785000D01*
X109998571Y-109827857D01*
X110041428Y-109913571D01*
X110041428Y-109999285D01*
X109998571Y-110127857D01*
X109484285Y-110642142D01*
X110041428Y-110642142D01*
X110598571Y-109742142D02*
X110684285Y-109742142D01*
X110770000Y-109785000D01*
X110812857Y-109827857D01*
X110855714Y-109913571D01*
X110898571Y-110085000D01*
X110898571Y-110299285D01*
X110855714Y-110470714D01*
X110812857Y-110556428D01*
X110770000Y-110599285D01*
X110684285Y-110642142D01*
X110598571Y-110642142D01*
X110512857Y-110599285D01*
X110470000Y-110556428D01*
X110427142Y-110470714D01*
X110384285Y-110299285D01*
X110384285Y-110085000D01*
X110427142Y-109913571D01*
X110470000Y-109827857D01*
X110512857Y-109785000D01*
X110598571Y-109742142D01*
X111755714Y-110642142D02*
X111241428Y-110642142D01*
X111498571Y-110642142D02*
X111498571Y-109742142D01*
X111412857Y-109870714D01*
X111327142Y-109956428D01*
X111241428Y-109999285D01*
X112184285Y-110642142D02*
X112355714Y-110642142D01*
X112441428Y-110599285D01*
X112484285Y-110556428D01*
X112570000Y-110427857D01*
X112612857Y-110256428D01*
X112612857Y-109913571D01*
X112570000Y-109827857D01*
X112527142Y-109785000D01*
X112441428Y-109742142D01*
X112270000Y-109742142D01*
X112184285Y-109785000D01*
X112141428Y-109827857D01*
X112098571Y-109913571D01*
X112098571Y-110127857D01*
X112141428Y-110213571D01*
X112184285Y-110256428D01*
X112270000Y-110299285D01*
X112441428Y-110299285D01*
X112527142Y-110256428D01*
X112570000Y-110213571D01*
X112612857Y-110127857D01*
D10*
X92026693Y-111752528D02*
X93232082Y-112314611D01*
X91464611Y-112957918D02*
X92026693Y-111752528D01*
X94383093Y-112851336D02*
X96739493Y-113950143D01*
X93284286Y-115207736D02*
X94383093Y-112851336D01*
X90927885Y-114108929D02*
X93284286Y-115207736D01*
X96739493Y-113950143D02*
X95615329Y-116360922D01*
X90927885Y-114108929D02*
X90902528Y-114163307D01*
X90902528Y-114163307D02*
X95615329Y-116360922D01*
X89677472Y-95006693D02*
X89115389Y-96212082D01*
X88472082Y-94444611D02*
X89677472Y-95006693D01*
X87321071Y-93907885D02*
X86196907Y-96318664D01*
X86196907Y-96318664D02*
X83840507Y-95219857D01*
X87321071Y-93907885D02*
X84964671Y-92809078D01*
X84964671Y-92809078D02*
X83840507Y-95219857D01*
X86001218Y-105071250D02*
X86694038Y-104671250D01*
X86694038Y-104671250D02*
X88644038Y-108048750D01*
X84095962Y-106171250D02*
X86045962Y-109548750D01*
X89818507Y-94727172D02*
X88613118Y-94165089D01*
X90380589Y-93521782D02*
X89818507Y-94727172D01*
X87462107Y-93628364D02*
X85105707Y-92529557D01*
X88560914Y-91271964D02*
X87462107Y-93628364D01*
X90917315Y-92370771D02*
X88560914Y-91271964D01*
X85105707Y-92529557D02*
X86229871Y-90118778D01*
X90917315Y-92370771D02*
X90942672Y-92316393D01*
X90942672Y-92316393D02*
X86229871Y-90118778D01*
X97180781Y-87921121D02*
X94425201Y-83511271D01*
X92821814Y-90644907D02*
X97180781Y-87921121D01*
X87861308Y-87612846D02*
X94425201Y-83511271D01*
X92821814Y-90644907D02*
X91444024Y-88439981D01*
X91444024Y-88439981D02*
X89239099Y-89817772D01*
X89239099Y-89817772D02*
X87861308Y-87612846D01*
X91744793Y-91317904D02*
X90616889Y-92022697D01*
X90616889Y-92022697D02*
X89912096Y-90894793D01*
X114045000Y-102690000D02*
X117135000Y-102690000D01*
X118090000Y-100130000D02*
G75*
G03X118090000Y-100130000I-2500000J0D01*
G01*
X115590462Y-97140000D02*
G75*
G03X114045170Y-102690000I-462J-2990000D01*
G01*
X115589538Y-97140000D02*
G75*
G02X117134830Y-102690000I462J-2990000D01*
G01*
X102500000Y-82940000D02*
X102500000Y-85440000D01*
X97500000Y-85440000D02*
X102500000Y-85440000D01*
X97500000Y-82940000D02*
X97500000Y-85440000D01*
X102500000Y-82940000D02*
X97500000Y-82940000D01*
X102500000Y-114450000D02*
X97500000Y-114450000D01*
X97500000Y-114450000D02*
X97500000Y-116950000D01*
X97500000Y-116950000D02*
X102500000Y-116950000D01*
X102500000Y-114450000D02*
X102500000Y-116950000D01*
X90450044Y-112322303D02*
X91032670Y-112593987D01*
X91131083Y-112687165D01*
X91172542Y-112801073D01*
X91157047Y-112935710D01*
X91120823Y-113013394D01*
X90812288Y-111545468D02*
X90631166Y-111933886D01*
X91001471Y-112153850D01*
X90980742Y-112096896D01*
X90978124Y-112001100D01*
X91068685Y-111806891D01*
X91143752Y-111747320D01*
X91200706Y-111726590D01*
X91296501Y-111723973D01*
X91490710Y-111814534D01*
X91550281Y-111889600D01*
X91571011Y-111946554D01*
X91573628Y-112042350D01*
X91483067Y-112236559D01*
X91408001Y-112296130D01*
X91351047Y-112316860D01*
X89452885Y-97193721D02*
X89546064Y-97095308D01*
X89603018Y-97074579D01*
X89698813Y-97071961D01*
X89815339Y-97126298D01*
X89874910Y-97201364D01*
X89895640Y-97258318D01*
X89898257Y-97354114D01*
X89753359Y-97664848D01*
X88937682Y-97284491D01*
X89064468Y-97012599D01*
X89139534Y-96953028D01*
X89196488Y-96932298D01*
X89292284Y-96929681D01*
X89369967Y-96965905D01*
X89429538Y-97040972D01*
X89450268Y-97097926D01*
X89452885Y-97193721D01*
X89326100Y-97465614D01*
X89263702Y-96585340D02*
X89481049Y-96119239D01*
X90188052Y-96732646D02*
X89372375Y-96352289D01*
X90622745Y-95800443D02*
X90405399Y-96266544D01*
X90514072Y-96033494D02*
X89698395Y-95653137D01*
X89778696Y-95785158D01*
X89820155Y-95899066D01*
X89822772Y-95994861D01*
X84678283Y-105584738D02*
X84228283Y-104805316D01*
X84413859Y-104698173D01*
X84546634Y-104671002D01*
X84663722Y-104702376D01*
X84743695Y-104755178D01*
X84866524Y-104882211D01*
X84930810Y-104993557D01*
X84979409Y-105163447D01*
X84985151Y-105259107D01*
X84953777Y-105376194D01*
X84863859Y-105477596D01*
X84678283Y-105584738D01*
X85491744Y-104422266D02*
X85791744Y-104941881D01*
X85134738Y-104232486D02*
X85270590Y-104896359D01*
X85753090Y-104617788D01*
X90686534Y-93373601D02*
X91269160Y-93645285D01*
X91367573Y-93738463D01*
X91409032Y-93852371D01*
X91393537Y-93987008D01*
X91357313Y-94064692D01*
X91302558Y-92762393D02*
X91846343Y-93015964D01*
X90901263Y-92811705D02*
X91393328Y-93277597D01*
X91628787Y-92772654D01*
X88188990Y-88594411D02*
X87643817Y-88935073D01*
X87512071Y-88966861D01*
X87393959Y-88939592D01*
X87289482Y-88853268D01*
X87244060Y-88780579D01*
X88620496Y-89284964D02*
X88529653Y-89139584D01*
X88447886Y-89089605D01*
X88388830Y-89075971D01*
X88234374Y-89071414D01*
X88066283Y-89125912D01*
X87775524Y-89307599D01*
X87725545Y-89389365D01*
X87711911Y-89448421D01*
X87720988Y-89543822D01*
X87811831Y-89689202D01*
X87893598Y-89739181D01*
X87952653Y-89752815D01*
X88048054Y-89743738D01*
X88229779Y-89630184D01*
X88279758Y-89548417D01*
X88293392Y-89489361D01*
X88284315Y-89393961D01*
X88193472Y-89248581D01*
X88111705Y-89198602D01*
X88052649Y-89184968D01*
X87957249Y-89194045D01*
X115514285Y-104392857D02*
X115428571Y-104350000D01*
X115342857Y-104264285D01*
X115214285Y-104135714D01*
X115128571Y-104092857D01*
X115042857Y-104092857D01*
X115085714Y-104307142D02*
X115000000Y-104264285D01*
X114914285Y-104178571D01*
X114871428Y-104007142D01*
X114871428Y-103707142D01*
X114914285Y-103535714D01*
X115000000Y-103450000D01*
X115085714Y-103407142D01*
X115257142Y-103407142D01*
X115342857Y-103450000D01*
X115428571Y-103535714D01*
X115471428Y-103707142D01*
X115471428Y-104007142D01*
X115428571Y-104178571D01*
X115342857Y-104264285D01*
X115257142Y-104307142D01*
X115085714Y-104307142D01*
X116242857Y-103707142D02*
X116242857Y-104307142D01*
X116028571Y-103364285D02*
X115814285Y-104007142D01*
X116371428Y-104007142D01*
X103191428Y-84167142D02*
X103191428Y-83267142D01*
X103491428Y-83910000D01*
X103791428Y-83267142D01*
X103791428Y-84167142D01*
X104691428Y-84167142D02*
X104177142Y-84167142D01*
X104434285Y-84167142D02*
X104434285Y-83267142D01*
X104348571Y-83395714D01*
X104262857Y-83481428D01*
X104177142Y-83524285D01*
X103191428Y-115447142D02*
X103191428Y-114547142D01*
X103491428Y-115190000D01*
X103791428Y-114547142D01*
X103791428Y-115447142D01*
X104177142Y-114632857D02*
X104220000Y-114590000D01*
X104305714Y-114547142D01*
X104520000Y-114547142D01*
X104605714Y-114590000D01*
X104648571Y-114632857D01*
X104691428Y-114718571D01*
X104691428Y-114804285D01*
X104648571Y-114932857D01*
X104134285Y-115447142D01*
X104691428Y-115447142D01*
M02*
