G04 #@! TF.GenerationSoftware,KiCad,Pcbnew,(5.1.2)-2*
G04 #@! TF.CreationDate,2019-07-20T17:19:24+01:00*
G04 #@! TF.ProjectId,Kilobot v2-0,4b696c6f-626f-4742-9076-322d302e6b69,rev?*
G04 #@! TF.SameCoordinates,Original*
G04 #@! TF.FileFunction,Copper,L1,Top*
G04 #@! TF.FilePolarity,Positive*
%FSLAX46Y46*%
G04 Gerber Fmt 4.6, Leading zero omitted, Abs format (unit mm)*
G04 Created by KiCad (PCBNEW (5.1.2)-2) date 2019-07-20 17:19:24*
%MOMM*%
%LPD*%
G04 APERTURE LIST*
%ADD10R,1.700000X1.700000*%
%ADD11C,1.700000*%
%ADD12C,1.700000*%
%ADD13C,0.150000*%
%ADD14C,0.800000*%
%ADD15C,1.800000*%
%ADD16R,1.800000X1.800000*%
%ADD17C,0.250000*%
G04 APERTURE END LIST*
D10*
X84280000Y-100000000D03*
D11*
X94972022Y-114593450D03*
D12*
X94972022Y-114593450D02*
X94972022Y-114593450D01*
D11*
X92670000Y-113520000D03*
D13*
G36*
X91540413Y-113931136D02*
G01*
X92258864Y-112390413D01*
X93799587Y-113108864D01*
X93081136Y-114649587D01*
X91540413Y-113931136D01*
X91540413Y-113931136D01*
G37*
D11*
X85607978Y-94576550D03*
D12*
X85607978Y-94576550D02*
X85607978Y-94576550D01*
D11*
X87910000Y-95650000D03*
D13*
G36*
X87498864Y-94520413D02*
G01*
X89039587Y-95238864D01*
X88321136Y-96779587D01*
X86780413Y-96061136D01*
X87498864Y-94520413D01*
X87498864Y-94520413D01*
G37*
D14*
X86351218Y-105677468D03*
D13*
G36*
X85754808Y-105444455D02*
G01*
X86447628Y-105044455D01*
X86947628Y-105910481D01*
X86254808Y-106310481D01*
X85754808Y-105444455D01*
X85754808Y-105444455D01*
G37*
D14*
X87601218Y-107842532D03*
D13*
G36*
X87004808Y-107609519D02*
G01*
X87697628Y-107209519D01*
X88197628Y-108075545D01*
X87504808Y-108475545D01*
X87004808Y-107609519D01*
X87004808Y-107609519D01*
G37*
D14*
X86388782Y-108542532D03*
D13*
G36*
X85792372Y-108309519D02*
G01*
X86485192Y-107909519D01*
X86985192Y-108775545D01*
X86292372Y-109175545D01*
X85792372Y-108309519D01*
X85792372Y-108309519D01*
G37*
D14*
X85138782Y-106377468D03*
D13*
G36*
X84542372Y-106144455D02*
G01*
X85235192Y-105744455D01*
X85735192Y-106610481D01*
X85042372Y-107010481D01*
X84542372Y-106144455D01*
X84542372Y-106144455D01*
G37*
D10*
X109000000Y-87400000D03*
X109000000Y-112500000D03*
D11*
X86873178Y-91886250D03*
D12*
X86873178Y-91886250D02*
X86873178Y-91886250D01*
D11*
X89175200Y-92959700D03*
D13*
G36*
X90304787Y-92548564D02*
G01*
X89586336Y-94089287D01*
X88045613Y-93370836D01*
X88764064Y-91830113D01*
X90304787Y-92548564D01*
X90304787Y-92548564D01*
G37*
D11*
X91040000Y-90190000D03*
D13*
G36*
X92211272Y-90460410D02*
G01*
X90769590Y-91361272D01*
X89868728Y-89919590D01*
X91310410Y-89018728D01*
X92211272Y-90460410D01*
X92211272Y-90460410D01*
G37*
D11*
X89694005Y-88035958D03*
D12*
X89694005Y-88035958D02*
X89694005Y-88035958D01*
D11*
X93194042Y-88844005D03*
D12*
X93194042Y-88844005D02*
X93194042Y-88844005D01*
D11*
X91848047Y-86689963D03*
D12*
X91848047Y-86689963D02*
X91848047Y-86689963D01*
D11*
X95348084Y-87498010D03*
D12*
X95348084Y-87498010D02*
X95348084Y-87498010D01*
D11*
X94002089Y-85343968D03*
D12*
X94002089Y-85343968D02*
X94002089Y-85343968D01*
D13*
G36*
X116084108Y-100502167D02*
G01*
X116127791Y-100508647D01*
X116170628Y-100519377D01*
X116212208Y-100534254D01*
X116252129Y-100553135D01*
X116290007Y-100575839D01*
X116325477Y-100602145D01*
X116358198Y-100631802D01*
X116387855Y-100664523D01*
X116414161Y-100699993D01*
X116436865Y-100737871D01*
X116455746Y-100777792D01*
X116470623Y-100819372D01*
X116481353Y-100862209D01*
X116487833Y-100905892D01*
X116490000Y-100950000D01*
X116490000Y-101850000D01*
X116487833Y-101894108D01*
X116481353Y-101937791D01*
X116470623Y-101980628D01*
X116455746Y-102022208D01*
X116436865Y-102062129D01*
X116414161Y-102100007D01*
X116387855Y-102135477D01*
X116358198Y-102168198D01*
X116325477Y-102197855D01*
X116290007Y-102224161D01*
X116252129Y-102246865D01*
X116212208Y-102265746D01*
X116170628Y-102280623D01*
X116127791Y-102291353D01*
X116084108Y-102297833D01*
X116040000Y-102300000D01*
X115140000Y-102300000D01*
X115095892Y-102297833D01*
X115052209Y-102291353D01*
X115009372Y-102280623D01*
X114967792Y-102265746D01*
X114927871Y-102246865D01*
X114889993Y-102224161D01*
X114854523Y-102197855D01*
X114821802Y-102168198D01*
X114792145Y-102135477D01*
X114765839Y-102100007D01*
X114743135Y-102062129D01*
X114724254Y-102022208D01*
X114709377Y-101980628D01*
X114698647Y-101937791D01*
X114692167Y-101894108D01*
X114690000Y-101850000D01*
X114690000Y-100950000D01*
X114692167Y-100905892D01*
X114698647Y-100862209D01*
X114709377Y-100819372D01*
X114724254Y-100777792D01*
X114743135Y-100737871D01*
X114765839Y-100699993D01*
X114792145Y-100664523D01*
X114821802Y-100631802D01*
X114854523Y-100602145D01*
X114889993Y-100575839D01*
X114927871Y-100553135D01*
X114967792Y-100534254D01*
X115009372Y-100519377D01*
X115052209Y-100508647D01*
X115095892Y-100502167D01*
X115140000Y-100500000D01*
X116040000Y-100500000D01*
X116084108Y-100502167D01*
X116084108Y-100502167D01*
G37*
D15*
X115590000Y-101400000D03*
X115590000Y-98860000D03*
X98730000Y-84240000D03*
D16*
X101270000Y-84240000D03*
X101270000Y-115750000D03*
D15*
X98730000Y-115750000D03*
D14*
X112124000Y-112442400D03*
X104134100Y-116585700D03*
X111337400Y-88734800D03*
X87381600Y-110629200D03*
X114443300Y-90524500D03*
X115472900Y-93915400D03*
X111160000Y-101540000D03*
X90754979Y-94317500D03*
X110800000Y-103310000D03*
X110800000Y-107290000D03*
X108065800Y-90404700D03*
X90030300Y-102493400D03*
X87601200Y-109081900D03*
X111680000Y-102400000D03*
X100073508Y-106863775D03*
X97265670Y-105486630D03*
X98875355Y-107763945D03*
X91204990Y-95807900D03*
X108963500Y-91281000D03*
X99249100Y-89398600D03*
X109460000Y-93830000D03*
X90778000Y-113572600D03*
X96245900Y-107523400D03*
X111930000Y-95490000D03*
X106802000Y-97692500D03*
X106993400Y-99046200D03*
X96190800Y-110424800D03*
X106905200Y-90106100D03*
X96017400Y-109424400D03*
X111001100Y-92006300D03*
X101390000Y-105600000D03*
X111943800Y-87477200D03*
X114822000Y-108997200D03*
X99331700Y-93236800D03*
X102050300Y-99974700D03*
X97248095Y-88391925D03*
X95650323Y-92204997D03*
X92733800Y-84462600D03*
X85348400Y-90705600D03*
X109545300Y-95829800D03*
X102783700Y-93705300D03*
X93812000Y-103638700D03*
X88333100Y-111113500D03*
X88012500Y-106409900D03*
X95801600Y-105590000D03*
X102192700Y-87480500D03*
X101930000Y-113370000D03*
X96249200Y-86230100D03*
X100380000Y-105690000D03*
X100132217Y-109231133D03*
X95113841Y-89407417D03*
X92999374Y-90885474D03*
X103160000Y-116090000D03*
X106058000Y-102308000D03*
X95224500Y-98901200D03*
X99894140Y-110681145D03*
X89494990Y-99825000D03*
X97700200Y-98853100D03*
X101499986Y-107800000D03*
X91859000Y-106522400D03*
X86545000Y-98970000D03*
X96225000Y-99012900D03*
X101891317Y-104716501D03*
X97271700Y-106497600D03*
X96800000Y-113670000D03*
X106021000Y-101181700D03*
X94307100Y-97528900D03*
X102082100Y-92973500D03*
X97713100Y-110372600D03*
D17*
X112124000Y-112442400D02*
X112124000Y-110299600D01*
X112124000Y-110299600D02*
X115135300Y-107288300D01*
X115135300Y-107288300D02*
X115135300Y-104479900D01*
X115135300Y-104479900D02*
X116822800Y-102792400D01*
X116822800Y-102792400D02*
X116822800Y-98305000D01*
X116822800Y-98305000D02*
X114234700Y-95716900D01*
X114234700Y-95716900D02*
X114234700Y-92073100D01*
X114234700Y-92073100D02*
X111337400Y-89175800D01*
X111337400Y-89175800D02*
X111337400Y-88734800D01*
X98730000Y-115750000D02*
X99956900Y-116976900D01*
X99956900Y-116976900D02*
X103742900Y-116976900D01*
X103742900Y-116976900D02*
X104134100Y-116585700D01*
X98730000Y-84240000D02*
X99955300Y-85465300D01*
X99955300Y-85465300D02*
X109225400Y-85465300D01*
X109225400Y-85465300D02*
X110175400Y-86415300D01*
X110175400Y-86415300D02*
X110175400Y-87572800D01*
X110175400Y-87572800D02*
X111337400Y-88734800D01*
X114443300Y-90524500D02*
X115472900Y-91554100D01*
X115472900Y-91554100D02*
X115472900Y-93915400D01*
X87381600Y-110629200D02*
X87381600Y-111230100D01*
X87381600Y-111230100D02*
X91129300Y-114977800D01*
X91129300Y-114977800D02*
X94587700Y-114977800D01*
X94587700Y-114977800D02*
X94972000Y-114593500D01*
X89694000Y-88036000D02*
X89543300Y-88186700D01*
X90754979Y-91811479D02*
X90754979Y-94317500D01*
X89543300Y-90599800D02*
X90754979Y-91811479D01*
X89543300Y-88186700D02*
X89543300Y-90599800D01*
X110800000Y-105300000D02*
X110800000Y-103310000D01*
X110800000Y-107290000D02*
X110800000Y-105300000D01*
X94854382Y-102050022D02*
X90647008Y-102050022D01*
X90647008Y-102050022D02*
X87910000Y-99313014D01*
X98960599Y-110448635D02*
X97700343Y-109188379D01*
X98960599Y-110820608D02*
X98960599Y-110448635D01*
X97700343Y-109188379D02*
X97700343Y-107227677D01*
X97700343Y-107227677D02*
X97997100Y-106930920D01*
X100242142Y-111406147D02*
X99546138Y-111406147D01*
X97997100Y-106930920D02*
X97997100Y-105192740D01*
X87910000Y-99313014D02*
X87910000Y-95650000D01*
X97997100Y-105192740D02*
X94854382Y-102050022D01*
X99546138Y-111406147D02*
X98960599Y-110820608D01*
X106348289Y-105300000D02*
X100242142Y-111406147D01*
X110800000Y-105300000D02*
X106348289Y-105300000D01*
X108524200Y-101610900D02*
X106069500Y-99156300D01*
X106069500Y-99156300D02*
X106069500Y-97374900D01*
X106069500Y-97374900D02*
X106518200Y-96926200D01*
X106518200Y-96926200D02*
X108778400Y-96926200D01*
X108778400Y-96926200D02*
X108947300Y-97095100D01*
X108947300Y-97095100D02*
X109976700Y-97095100D01*
X109976700Y-97095100D02*
X110736900Y-96334900D01*
X110736900Y-96334900D02*
X110736900Y-94936000D01*
X110736900Y-94936000D02*
X110286600Y-94485700D01*
X110286600Y-94485700D02*
X110286600Y-93597800D01*
X110286600Y-93597800D02*
X109995200Y-93306400D01*
X109995200Y-93306400D02*
X109995200Y-91235000D01*
X109995200Y-91235000D02*
X109164900Y-90404700D01*
X109164900Y-90404700D02*
X108065800Y-90404700D01*
X111680000Y-102400000D02*
X109313200Y-102400000D01*
X109313200Y-102400000D02*
X108524200Y-101610900D01*
X108065800Y-90404700D02*
X108065800Y-90165900D01*
X108065800Y-90165900D02*
X106105800Y-88205900D01*
X106105800Y-88205900D02*
X99284600Y-88205900D01*
X99284600Y-88205900D02*
X96422700Y-85344000D01*
X96422700Y-85344000D02*
X94002100Y-85344000D01*
X87601200Y-109081900D02*
X90987100Y-109081900D01*
X90987100Y-109081900D02*
X93982700Y-106086300D01*
X93982700Y-106086300D02*
X93982700Y-104991400D01*
X93982700Y-104991400D02*
X94578300Y-104395800D01*
X87601200Y-107842500D02*
X87601200Y-109081900D01*
X101151986Y-108525002D02*
X100774986Y-108148002D01*
X100774986Y-107565253D02*
X100073508Y-106863775D01*
X108524200Y-101610900D02*
X108524200Y-101848792D01*
X101847990Y-108525002D02*
X101151986Y-108525002D01*
X100774986Y-108148002D02*
X100774986Y-107565253D01*
X108524200Y-101848792D02*
X101847990Y-108525002D01*
X94578300Y-104395800D02*
X94578300Y-103334300D01*
X94578300Y-103334300D02*
X94137399Y-102893399D01*
X90430299Y-102893399D02*
X90030300Y-102493400D01*
X94137399Y-102893399D02*
X90430299Y-102893399D01*
X96347900Y-104395800D02*
X97265670Y-105313570D01*
X94578300Y-104395800D02*
X96347900Y-104395800D01*
X97265670Y-105313570D02*
X97265670Y-105486630D01*
X91204990Y-95242215D02*
X91204990Y-95807900D01*
X91479989Y-94967216D02*
X91204990Y-95242215D01*
X91479989Y-91732290D02*
X91479989Y-94967216D01*
X91040000Y-91292301D02*
X91479989Y-91732290D01*
X91040000Y-90190000D02*
X91040000Y-91292301D01*
X98875355Y-107763945D02*
X98898495Y-107740805D01*
X98898495Y-107740805D02*
X98898495Y-104821315D01*
X91204990Y-100314990D02*
X91204990Y-95807900D01*
X92040000Y-101150000D02*
X91204990Y-100314990D01*
X95227180Y-101150000D02*
X92040000Y-101150000D01*
X98898495Y-104821315D02*
X95227180Y-101150000D01*
X108148200Y-92096300D02*
X107697900Y-91646000D01*
X107697900Y-91646000D02*
X101496500Y-91646000D01*
X101496500Y-91646000D02*
X99249100Y-89398600D01*
X108148200Y-92096300D02*
X109460000Y-93408100D01*
X109460000Y-93408100D02*
X109460000Y-93830000D01*
X108148200Y-92096300D02*
X108963500Y-91281000D01*
X96245900Y-106957715D02*
X96245900Y-107523400D01*
X96540669Y-106662946D02*
X96245900Y-106957715D01*
X96126700Y-104846100D02*
X96540669Y-105260069D01*
X96540669Y-105260069D02*
X96540669Y-106662946D01*
X95503000Y-104846100D02*
X96126700Y-104846100D01*
X94433000Y-105916100D02*
X95503000Y-104846100D01*
X94433000Y-107569800D02*
X94433000Y-105916100D01*
X90778000Y-111224800D02*
X94433000Y-107569800D01*
X90778000Y-113572600D02*
X90778000Y-111224800D01*
X106802000Y-97692500D02*
X110016200Y-97692500D01*
X110016200Y-97692500D02*
X111930000Y-95778700D01*
X111930000Y-95778700D02*
X111930000Y-95490000D01*
X112433500Y-101761600D02*
X109718100Y-99046200D01*
X109718100Y-99046200D02*
X106993400Y-99046200D01*
X112433500Y-106752900D02*
X112433500Y-101761600D01*
X110373600Y-108812800D02*
X112433500Y-106752900D01*
X103715600Y-108812800D02*
X110373600Y-108812800D01*
X100672242Y-111856158D02*
X103715600Y-108812800D01*
X97622158Y-111856158D02*
X100672242Y-111856158D01*
X96190800Y-110424800D02*
X97622158Y-111856158D01*
X96017400Y-109424400D02*
X95465400Y-109976400D01*
X95465400Y-109976400D02*
X95465400Y-110725100D01*
X95465400Y-110725100D02*
X95890400Y-111150100D01*
X95890400Y-111150100D02*
X95946600Y-111150100D01*
X95946600Y-111150100D02*
X97102669Y-112306169D01*
X97102669Y-112306169D02*
X101977531Y-112306169D01*
X112883800Y-93889000D02*
X111001100Y-92006300D01*
X112883800Y-106939500D02*
X112883800Y-93889000D01*
X110560200Y-109263100D02*
X112883800Y-106939500D01*
X105020600Y-109263100D02*
X110560200Y-109263100D01*
X101977531Y-112306169D02*
X105020600Y-109263100D01*
X95806401Y-99679991D02*
X100990001Y-104863591D01*
X98960600Y-88656200D02*
X97800009Y-89816791D01*
X97800009Y-92812591D02*
X93556300Y-97056300D01*
X97800009Y-89816791D02*
X97800009Y-92812591D01*
X100990001Y-105200001D02*
X101390000Y-105600000D01*
X100990001Y-104863591D02*
X100990001Y-105200001D01*
X105455300Y-88656200D02*
X98960600Y-88656200D01*
X93556300Y-97056300D02*
X93556300Y-98301400D01*
X106905200Y-90106100D02*
X105455300Y-88656200D01*
X93556300Y-98301400D02*
X94934891Y-99679991D01*
X94934891Y-99679991D02*
X95806401Y-99679991D01*
X114822000Y-108997200D02*
X115585600Y-108233600D01*
X115585600Y-108233600D02*
X115585600Y-104891500D01*
X115585600Y-104891500D02*
X117273100Y-103204000D01*
X117273100Y-103204000D02*
X117273100Y-97000600D01*
X117273100Y-97000600D02*
X114726700Y-94454200D01*
X114726700Y-94454200D02*
X114726700Y-91852900D01*
X114726700Y-91852900D02*
X112062800Y-89189000D01*
X112062800Y-89189000D02*
X112062800Y-87596100D01*
X112062800Y-87596100D02*
X112062700Y-87596100D01*
X112062700Y-87596100D02*
X111943800Y-87477200D01*
X102050300Y-99974700D02*
X105113900Y-103038300D01*
X105113900Y-103038300D02*
X106394000Y-103038300D01*
X106394000Y-103038300D02*
X106828600Y-102603700D01*
X106828600Y-102603700D02*
X106828600Y-100552300D01*
X106828600Y-100552300D02*
X105561000Y-99284700D01*
X105561000Y-99284700D02*
X105561000Y-97218000D01*
X105561000Y-97218000D02*
X106338500Y-96440500D01*
X106338500Y-96440500D02*
X109130200Y-96440500D01*
X109130200Y-96440500D02*
X109290500Y-96600800D01*
X109290500Y-96600800D02*
X109834100Y-96600800D01*
X109834100Y-96600800D02*
X110286600Y-96148300D01*
X110286600Y-96148300D02*
X110286600Y-95535300D01*
X110286600Y-95535300D02*
X109623800Y-94872500D01*
X109623800Y-94872500D02*
X105834900Y-94872500D01*
X105834900Y-94872500D02*
X103171200Y-92208800D01*
X103171200Y-92208800D02*
X100359700Y-92208800D01*
X100359700Y-92208800D02*
X99331700Y-93236800D01*
X97248095Y-90607225D02*
X97248095Y-88391925D01*
X95650323Y-92204997D02*
X97248095Y-90607225D01*
X109000000Y-87400000D02*
X107820600Y-86220600D01*
X107820600Y-86220600D02*
X98777900Y-86220600D01*
X98777900Y-86220600D02*
X96661300Y-84104000D01*
X96661300Y-84104000D02*
X93092400Y-84104000D01*
X93092400Y-84104000D02*
X92733800Y-84462600D01*
X109000000Y-112500000D02*
X109000000Y-112149800D01*
X109000000Y-112149800D02*
X113784400Y-107365400D01*
X113784400Y-107365400D02*
X113784400Y-92608600D01*
X113784400Y-92608600D02*
X109000000Y-87824200D01*
X109000000Y-87824200D02*
X109000000Y-87400000D01*
X85348400Y-90705600D02*
X85348400Y-92909800D01*
X85348400Y-92909800D02*
X84280000Y-93978200D01*
X84280000Y-93978200D02*
X84280000Y-100000000D01*
X109545300Y-95829800D02*
X104908200Y-95829800D01*
X104908200Y-95829800D02*
X102783700Y-93705300D01*
X86351200Y-105677500D02*
X88693400Y-105677500D01*
X88693400Y-105677500D02*
X90276000Y-107260100D01*
X90276000Y-107260100D02*
X92170700Y-107260100D01*
X92170700Y-107260100D02*
X92912000Y-106518800D01*
X92912000Y-106518800D02*
X92912000Y-104538700D01*
X92912000Y-104538700D02*
X93812000Y-103638700D01*
X88333100Y-111113500D02*
X88333100Y-110519700D01*
X88333100Y-110519700D02*
X87686400Y-109873000D01*
X87686400Y-109873000D02*
X87282600Y-109873000D01*
X87282600Y-109873000D02*
X86388800Y-108979200D01*
X86388800Y-108979200D02*
X86388800Y-108542500D01*
X88012500Y-106409900D02*
X87712800Y-106709600D01*
X87712800Y-106709600D02*
X85470900Y-106709600D01*
X85470900Y-106709600D02*
X85138800Y-106377500D01*
X92670000Y-113520000D02*
X92670000Y-109969700D01*
X92670000Y-109969700D02*
X95801600Y-106838100D01*
X95801600Y-106838100D02*
X95801600Y-105590000D01*
X101930000Y-113370000D02*
X104048400Y-111251600D01*
X104048400Y-111251600D02*
X109261300Y-111251600D01*
X109261300Y-111251600D02*
X113334100Y-107178800D01*
X113334100Y-107178800D02*
X113334100Y-93251800D01*
X113334100Y-93251800D02*
X109357100Y-89274800D01*
X109357100Y-89274800D02*
X108671900Y-89274800D01*
X108671900Y-89274800D02*
X106877600Y-87480500D01*
X106877600Y-87480500D02*
X102192700Y-87480500D01*
X99798516Y-105588516D02*
X99798515Y-104448515D01*
X99900000Y-105690000D02*
X99798516Y-105588516D01*
X100380000Y-105690000D02*
X99900000Y-105690000D01*
X95569990Y-100219990D02*
X94429990Y-100219990D01*
X99798515Y-104448515D02*
X95569990Y-100219990D01*
X94429990Y-100219990D02*
X93010000Y-98800000D01*
X96523085Y-86503985D02*
X96249200Y-86230100D01*
X96523085Y-89023492D02*
X96523085Y-86503985D01*
X93010000Y-92536577D02*
X96523085Y-89023492D01*
X93010000Y-98800000D02*
X93010000Y-92536577D01*
X100132217Y-107995488D02*
X99348506Y-107211777D01*
X99348506Y-107211777D02*
X99348506Y-104634916D01*
X95383590Y-100670000D02*
X93530000Y-100670000D01*
X93530000Y-100670000D02*
X92559989Y-99699989D01*
X92559989Y-99699989D02*
X92559989Y-92350177D01*
X92559989Y-92350177D02*
X94713842Y-90196324D01*
X94713842Y-89807416D02*
X95113841Y-89407417D01*
X95348100Y-87498000D02*
X95113841Y-87732259D01*
X95113841Y-87732259D02*
X95113841Y-89407417D01*
X100132217Y-109231133D02*
X100132217Y-107995488D01*
X99348506Y-104634916D02*
X95383590Y-100670000D01*
X94713842Y-90196324D02*
X94713842Y-89807416D01*
X106058000Y-102308000D02*
X101877800Y-98127800D01*
X101877800Y-98127800D02*
X95997900Y-98127800D01*
X95997900Y-98127800D02*
X95224500Y-98901200D01*
X99894140Y-110681145D02*
X98150354Y-108937359D01*
X98150354Y-108937359D02*
X98150354Y-107415944D01*
X98150354Y-107415944D02*
X98447400Y-107118898D01*
X98447400Y-107118898D02*
X98447400Y-105006630D01*
X98447400Y-105006630D02*
X95040781Y-101600011D01*
X91270001Y-101600011D02*
X89494990Y-99825000D01*
X95040781Y-101600011D02*
X91270001Y-101600011D01*
X97700200Y-98853100D02*
X102616318Y-103769218D01*
X102616318Y-106683668D02*
X101499986Y-107800000D01*
X102616318Y-103769218D02*
X102616318Y-106683668D01*
X91859000Y-106522400D02*
X86545000Y-101208400D01*
X86545000Y-101208400D02*
X86545000Y-98970000D01*
X101891317Y-104679217D02*
X101891317Y-104716501D01*
X96225000Y-99012900D02*
X101891317Y-104679217D01*
X94564700Y-111434700D02*
X96800000Y-113670000D01*
X94564700Y-109078900D02*
X94564700Y-111434700D01*
X97271700Y-106497600D02*
X97271700Y-107063285D01*
X97271700Y-107063285D02*
X97250332Y-107084653D01*
X95394900Y-108248700D02*
X94564700Y-109078900D01*
X97250332Y-107084653D02*
X97250332Y-107585368D01*
X96587000Y-108248700D02*
X95394900Y-108248700D01*
X97250332Y-107585368D02*
X96587000Y-108248700D01*
X101997900Y-97158600D02*
X106021000Y-101181700D01*
X102082100Y-92973500D02*
X101997900Y-93057700D01*
X101997900Y-93057700D02*
X101997900Y-97158600D01*
X101997900Y-97158600D02*
X94677400Y-97158600D01*
X94677400Y-97158600D02*
X94307100Y-97528900D01*
X115590000Y-98860000D02*
X114363000Y-100087000D01*
X114363000Y-100087000D02*
X114363000Y-107423700D01*
X114363000Y-107423700D02*
X110311300Y-111475400D01*
X110311300Y-111475400D02*
X110311300Y-113417900D01*
X110311300Y-113417900D02*
X109588500Y-114140700D01*
X109588500Y-114140700D02*
X98300300Y-114140700D01*
X98300300Y-114140700D02*
X95760000Y-111600400D01*
X95760000Y-111600400D02*
X95703800Y-111600400D01*
X95703800Y-111600400D02*
X95015000Y-110911600D01*
X95015000Y-110911600D02*
X95015000Y-109317700D01*
X95015000Y-109317700D02*
X95633700Y-108699000D01*
X95633700Y-108699000D02*
X96377000Y-108699000D01*
X96377000Y-108699000D02*
X97713100Y-110035100D01*
X97713100Y-110035100D02*
X97713100Y-110372600D01*
X86033000Y-94151600D02*
X86032900Y-94151600D01*
X86032900Y-94151600D02*
X85608000Y-94576500D01*
X86033000Y-94151600D02*
X86458000Y-93726600D01*
X88408300Y-93726600D02*
X89175200Y-92959700D01*
X86458000Y-93726600D02*
X88408300Y-93726600D01*
X85608000Y-94576600D02*
X86033000Y-94151600D01*
M02*
