M48
; DRILL file {KiCad (5.1.2)-2} date 20/07/2019 16:29:53
; FORMAT={-:-/ absolute / inch / decimal}
; #@! TF.CreationDate,2019-07-20T16:29:53+01:00
; #@! TF.GenerationSoftware,Kicad,Pcbnew,(5.1.2)-2
; #@! TF.FileFunction,Plated,1,2,PTH
FMAT,2
INCH
T1C0.0157
T2C0.0354
T3C0.0394
%
G90
G05
T1
X3.3602Y-3.5711
X3.4073Y-3.8965
X3.4402Y-4.3555
X3.4489Y-4.2946
X3.4651Y-4.1894
X3.4777Y-4.3745
X3.5234Y-3.9301
X3.5445Y-4.0352
X3.573Y-3.7133
X3.5739Y-4.4714
X3.5907Y-3.772
X3.6165Y-4.1938
X3.6509Y-3.3253
X3.6614Y-3.5782
X3.6934Y-4.0803
X3.7129Y-3.8397
X3.7446Y-3.52
X3.749Y-3.8937
X3.7658Y-3.6301
X3.7717Y-4.1571
X3.7802Y-4.308
X3.787Y-4.3474
X3.7884Y-3.8981
X3.7892Y-4.2332
X3.7893Y-3.3949
X3.811Y-4.4752
X3.8287Y-3.48
X3.8294Y-4.153
X3.8296Y-4.1928
X3.8465Y-3.8919
X3.847Y-4.3454
X3.8927Y-4.2427
X3.9074Y-3.5196
X3.9107Y-3.6707
X3.9328Y-4.3575
X3.9399Y-4.2072
X3.9422Y-4.3004
X3.952Y-4.161
X3.9917Y-4.1575
X3.9961Y-4.2441
X4.0115Y-4.1227
X4.013Y-4.4634
X4.0177Y-3.936
X4.019Y-3.6604
X4.0233Y-3.4441
X4.0466Y-3.6892
X4.0614Y-4.5705
X4.0998Y-4.59
X4.1741Y-3.9835
X4.1755Y-4.0279
X4.2048Y-3.8462
X4.2089Y-3.5475
X4.2123Y-3.8995
X4.2546Y-3.5592
X4.2899Y-3.5937
X4.3094Y-3.6941
X4.3128Y-3.7728
X4.3622Y-4.0673
X4.3622Y-4.224
X4.3701Y-3.6223
X4.3764Y-3.9976
X4.3834Y-3.4935
X4.3969Y-4.0315
X4.4067Y-3.7594
X4.4072Y-3.444
X4.4143Y-4.4269
X4.5056Y-3.564
X4.5206Y-4.2912
X4.5462Y-3.6975
T2
X3.887Y-4.5571
X3.987Y-4.5571
X3.887Y-3.3165
X3.987Y-3.3165
X4.5508Y-3.8921
X4.5508Y-3.9921
T3
X3.4202Y-3.6176
X3.5108Y-3.6598
X3.6484Y-4.4693
X3.7391Y-4.5116
X4.2913Y-3.4409
X3.3181Y-3.937
X3.5313Y-3.466
X3.5843Y-3.5508
X3.6161Y-3.413
X3.6691Y-3.4978
X3.7009Y-3.36
X3.7539Y-3.4448
X4.2913Y-4.4291
X3.3704Y-3.7235
X3.461Y-3.7657
T0
M30
